<svg xmlns="http://www.w3.org/2000/svg" xmlns:xlink="http://www.w3.org/1999/xlink" width="350" zoomAndPan="magnify" viewBox="0 0 262.5 262.500001" height="350" preserveAspectRatio="xMidYMid meet" version="1.0"><defs><clipPath id="178db9a2a8"><path d="M 105.679688 37.214844 L 113.011719 37.214844 L 113.011719 44.546875 L 105.679688 44.546875 Z M 105.679688 37.214844 " clip-rule="nonzero"/></clipPath><clipPath id="ae9cdefd4b"><path d="M 109.34375 37.214844 C 107.320312 37.214844 105.679688 38.855469 105.679688 40.882812 C 105.679688 42.90625 107.320312 44.546875 109.34375 44.546875 C 111.367188 44.546875 113.011719 42.90625 113.011719 40.882812 C 113.011719 38.855469 111.367188 37.214844 109.34375 37.214844 Z M 109.34375 37.214844 " clip-rule="nonzero"/></clipPath><clipPath id="d2b56af7da"><path d="M 0.878906 0 L 262 0 L 262 261.253906 L 0.878906 261.253906 Z M 0.878906 0 " clip-rule="nonzero"/></clipPath></defs><g clip-path="url(#178db9a2a8)"><g clip-path="url(#ae9cdefd4b)"><path fill="#6d8092" d="M 105.679688 37.214844 L 113.011719 37.214844 L 113.011719 44.546875 L 105.679688 44.546875 Z M 105.679688 37.214844 " fill-opacity="1" fill-rule="nonzero"/></g></g><path fill="#543b79" d="M 233.554688 8.164062 L 29.453125 8.164062 C 18.1875 8.164062 9.042969 17.296875 9.042969 28.574219 L 9.042969 232.679688 C 9.042969 243.957031 18.1875 253.089844 29.453125 253.089844 L 233.554688 253.089844 C 244.824219 253.089844 253.964844 243.957031 253.964844 232.679688 L 253.964844 28.574219 C 253.964844 17.296875 244.824219 8.164062 233.554688 8.164062 Z M 233.554688 8.164062 " fill-opacity="1" fill-rule="nonzero"/><path fill="#ffffff" d="M 191.460938 181.125 L 191.460938 181.144531 C 189.285156 186.394531 185.835938 191.019531 181.414062 194.578125 C 176.84375 198.28125 171.050781 201.328125 163.921875 203.503906 C 156.800781 205.714844 148.332031 206.824219 138.527344 206.824219 L 68.511719 206.824219 L 68.511719 54.425781 L 142.554688 54.425781 C 156.246094 54.425781 167.21875 57.507812 175.425781 63.789062 C 183.699219 70.101562 187.816406 79.507812 187.816406 92.199219 C 187.816406 99.875 185.941406 106.460938 182.175781 111.902344 C 178.433594 117.3125 173.03125 121.546875 166.066406 124.488281 L 166.066406 124.988281 C 175.363281 126.945312 182.558594 131.355469 187.292969 138.214844 C 192.027344 145.070312 194.457031 153.734375 194.457031 164.195312 C 194.457031 170.054688 193.324219 175.625 191.191406 180.832031 Z M 191.460938 181.125 " fill-opacity="1" fill-rule="nonzero"/><path fill="#543b79" d="M 160.984375 140.171875 C 156.519531 136.089844 150.25 134.097656 142.152344 134.097656 L 95.101562 134.097656 L 95.101562 181.648438 L 142.28125 181.648438 C 150.335938 181.648438 156.648438 179.554688 161.113281 175.332031 C 165.574219 171.140625 167.863281 165.164062 167.863281 157.480469 C 167.785156 149.96875 165.574219 144.15625 161.113281 140.171875 Z M 160.984375 140.171875 " fill-opacity="1" fill-rule="nonzero"/><path fill="#543b79" d="M 152.558594 110.867188 L 152.601562 110.867188 C 156.910156 107.210938 159.023438 101.976562 159.023438 95.148438 C 159.023438 87.488281 157.117188 82.042969 153.253906 78.929688 C 149.421875 75.828125 143.890625 74.21875 136.621094 74.21875 L 93.078125 74.21875 L 93.078125 116.269531 L 136.621094 116.269531 C 142.96875 116.277344 148.378906 114.417969 152.558594 110.867188 Z M 152.558594 110.867188 " fill-opacity="1" fill-rule="nonzero"/><g clip-path="url(#d2b56af7da)"><path fill="#000000" d="M 233.554688 261.253906 L 29.453125 261.253906 C 13.703125 261.253906 0.878906 248.429688 0.878906 232.679688 L 0.878906 28.574219 C 0.878906 12.824219 13.703125 0 29.453125 0 L 233.554688 0 C 249.308594 0 262.128906 12.824219 262.128906 28.574219 L 262.128906 232.679688 C 262.128906 248.429688 249.308594 261.253906 233.554688 261.253906 Z M 29.453125 16.328125 C 22.703125 16.328125 17.207031 21.824219 17.207031 28.574219 L 17.207031 232.679688 C 17.207031 239.425781 22.703125 244.925781 29.453125 244.925781 L 233.554688 244.925781 C 240.304688 244.925781 245.800781 239.425781 245.800781 232.679688 L 245.800781 28.574219 C 245.800781 21.824219 240.304688 16.328125 233.554688 16.328125 Z M 29.453125 16.328125 " fill-opacity="1" fill-rule="nonzero"/></g><path fill="#000000" d="M 138.515625 212.265625 L 68.816406 212.265625 C 64.308594 212.265625 60.652344 208.609375 60.652344 204.101562 L 60.652344 57.148438 C 60.652344 52.640625 64.308594 48.984375 68.816406 48.984375 L 142.519531 48.984375 C 157.933594 48.984375 170.574219 52.566406 180.097656 59.621094 C 190.472656 67.304688 195.738281 78.722656 195.738281 93.582031 C 195.738281 102.695312 193.335938 110.683594 188.609375 117.324219 C 187.054688 119.5 185.277344 121.515625 183.308594 123.355469 C 187.414062 125.96875 190.886719 129.265625 193.703125 133.21875 C 199.441406 141.28125 202.359375 151.296875 202.359375 163.011719 C 202.359375 168.910156 201.324219 174.667969 199.289062 180.167969 C 199.222656 180.984375 199.050781 181.777344 198.710938 182.539062 C 196.011719 188.875 191.691406 194.480469 186.226562 198.746094 C 180.738281 203.058594 173.96875 206.433594 166.109375 208.75 C 158.328125 211.082031 149.03125 212.265625 138.515625 212.265625 Z M 76.980469 195.9375 L 138.503906 195.9375 C 147.417969 195.9375 155.136719 194.980469 161.429688 193.085938 C 167.328125 191.34375 172.269531 188.917969 176.15625 185.871094 C 178.945312 183.691406 181.230469 180.960938 182.851562 177.890625 C 182.949219 177.207031 183.125 176.519531 183.417969 175.84375 C 185.148438 171.761719 186.019531 167.441406 186.019531 162.988281 C 186.019531 154.75 184.125 147.914062 180.390625 142.675781 C 176.960938 137.855469 171.542969 134.664062 164.292969 133.183594 C 160.480469 132.410156 157.75 129.070312 157.75 125.183594 C 157.75 121.863281 159.761719 118.390625 162.832031 117.140625 C 168.285156 114.90625 172.488281 111.773438 175.308594 107.820312 C 178.0625 103.96875 179.402344 99.296875 179.402344 93.570312 C 179.402344 83.917969 176.527344 77.289062 170.375 72.738281 C 163.738281 67.804688 154.375 65.3125 142.53125 65.3125 L 76.980469 65.3125 Z M 76.980469 195.9375 " fill-opacity="1" fill-rule="nonzero"/><path fill="#000000" d="M 142.019531 184.804688 L 96.070312 184.804688 C 91.566406 184.804688 87.90625 181.144531 87.90625 176.640625 L 87.90625 139.117188 C 87.90625 134.609375 91.566406 130.953125 96.070312 130.953125 L 141.890625 130.953125 C 151.164062 130.953125 158.445312 132.824219 164.140625 136.667969 C 164.488281 136.851562 164.824219 137.058594 165.164062 137.300781 C 171.5625 141.9375 174.992188 148.902344 175.101562 157.46875 C 175.101562 166.144531 171.714844 173.265625 165.324219 178.152344 C 159.554688 182.5625 151.71875 184.804688 142.019531 184.804688 Z M 104.234375 168.476562 L 142.019531 168.476562 C 148.050781 168.476562 152.546875 167.363281 155.398438 165.175781 C 156.976562 163.96875 158.773438 162.03125 158.773438 157.566406 C 158.730469 153.886719 157.445312 152.070312 156.148438 150.972656 C 155.886719 150.820312 155.625 150.65625 155.386719 150.46875 C 152.523438 148.359375 147.984375 147.28125 141.898438 147.28125 L 104.234375 147.28125 Z M 104.234375 168.476562 " fill-opacity="1" fill-rule="nonzero"/><path fill="#000000" d="M 135.664062 119.742188 L 96.070312 119.742188 C 91.566406 119.742188 87.90625 116.082031 87.90625 111.578125 L 87.90625 78.921875 C 87.90625 74.414062 91.566406 70.753906 96.070312 70.753906 L 135.664062 70.753906 C 143.882812 70.753906 150.53125 72.476562 155.429688 75.871094 C 159.414062 78.613281 164.195312 84.210938 164.195312 95.183594 C 164.195312 103.128906 161.003906 109.640625 154.972656 114.003906 C 154.765625 114.144531 154.570312 114.285156 154.363281 114.40625 C 149.28125 117.902344 142.824219 119.742188 135.664062 119.742188 Z M 104.234375 103.414062 L 135.664062 103.414062 C 139.691406 103.414062 142.945312 102.519531 145.351562 100.777344 C 145.492188 100.679688 145.621094 100.582031 145.765625 100.496094 C 146.898438 99.582031 147.867188 98.21875 147.867188 95.171875 C 147.867188 93.417969 147.636719 90.328125 146.15625 89.292969 C 144.6875 88.28125 141.683594 87.085938 135.664062 87.085938 L 104.234375 87.085938 Z M 104.234375 103.414062 " fill-opacity="1" fill-rule="nonzero"/></svg>