<svg xmlns="http://www.w3.org/2000/svg" xmlns:xlink="http://www.w3.org/1999/xlink" width="350" zoomAndPan="magnify" viewBox="0 0 262.5 262.500001" height="350" preserveAspectRatio="xMidYMid meet" version="1.0"><defs><clipPath id="24f1f3a506"><path d="M 16.375 0 L 245.4375 0 L 245.4375 262 L 16.375 262 Z M 16.375 0 " clip-rule="nonzero"/></clipPath><clipPath id="66e0d1c424"><path d="M 22 206 L 136 206 L 136 262 L 22 262 Z M 22 206 " clip-rule="nonzero"/></clipPath></defs><path fill="#2062af" d="M 217.320312 227.460938 L 130.90625 250.746094 L 44.496094 227.460938 L 24.554688 11.253906 L 237.257812 11.253906 Z M 217.320312 227.460938 " fill-opacity="1" fill-rule="nonzero"/><path fill="#3c9cd7" d="M 130.90625 8.1875 L 130.90625 252.644531 L 131.136719 252.710938 L 213.949219 222.535156 L 232.273438 8.175781 Z M 130.90625 8.1875 " fill-opacity="1" fill-rule="nonzero"/><path fill="#ffffff" d="M 60.125 51.855469 L 201.6875 51.855469 L 196.265625 79.144531 L 136.011719 106.4375 L 190.210938 106.4375 L 179.609375 182.714844 L 130.90625 204.6875 L 85.902344 182.441406 L 81.8125 150.105469 L 108.90625 150.105469 L 111.949219 166.480469 L 131.222656 177.394531 L 155.308594 166.480469 L 160.390625 128.269531 L 79.09375 128.269531 L 75.507812 106.4375 L 136.011719 79.144531 L 67.367188 79.144531 Z M 60.125 51.855469 " fill-opacity="1" fill-rule="nonzero"/><g clip-path="url(#24f1f3a506)"><path fill="#000000" d="M 130.90625 262 C 129.925781 262 128.953125 261.828125 128.027344 261.476562 L 42.945312 229.4375 C 40.023438 228.332031 37.996094 225.679688 37.6875 222.582031 L 16.417969 8.996094 C 16.191406 6.703125 16.941406 4.410156 18.492188 2.683594 C 20.039062 0.984375 22.242188 0 24.554688 0 L 237.257812 0 C 239.570312 0 241.773438 0.984375 243.324219 2.695312 C 244.882812 4.410156 245.636719 6.703125 245.394531 9.007812 L 224.125 222.589844 C 223.820312 225.691406 221.78125 228.34375 218.867188 229.449219 L 133.785156 261.488281 C 132.859375 261.828125 131.886719 262 130.90625 262 Z M 53.460938 215.898438 L 130.90625 245.058594 L 208.351562 215.898438 L 228.226562 16.375 L 33.585938 16.375 Z M 53.460938 215.898438 " fill-opacity="1" fill-rule="nonzero"/></g><path fill="#000000" d="M 130.90625 212.875 C 129.664062 212.875 128.417969 212.59375 127.285156 212.023438 L 82.28125 189.777344 C 79.816406 188.5625 78.125 186.183594 77.785156 183.464844 L 73.695312 151.132812 C 73.402344 148.792969 74.121094 146.449219 75.679688 144.691406 C 77.230469 142.933594 79.453125 141.917969 81.8125 141.917969 L 108.90625 141.917969 C 112.84375 141.917969 116.234375 144.734375 116.945312 148.609375 L 119.289062 161.230469 L 131.636719 168.214844 L 147.792969 160.890625 L 151.042969 136.457031 L 79.09375 136.457031 C 75.089844 136.457031 71.667969 133.554688 71.023438 129.601562 L 67.433594 107.769531 C 66.835938 104.113281 68.765625 100.5 72.136719 98.972656 L 97.953125 87.332031 L 67.367188 87.332031 C 63.660156 87.332031 60.410156 84.832031 59.460938 81.242188 L 52.21875 53.949219 C 51.5625 51.492188 52.085938 48.875 53.636719 46.867188 C 55.195312 44.847656 57.585938 43.667969 60.125 43.667969 L 201.699219 43.667969 C 204.152344 43.667969 206.476562 44.769531 208.023438 46.65625 C 209.585938 48.546875 210.195312 51.035156 209.714844 53.449219 L 204.292969 80.738281 C 203.78125 83.328125 202.046875 85.511719 199.648438 86.601562 L 173.925781 98.25 L 190.210938 98.25 C 192.578125 98.25 194.828125 99.277344 196.375 101.066406 C 197.933594 102.855469 198.632812 105.226562 198.316406 107.574219 L 187.703125 183.847656 C 187.3125 186.632812 185.523438 189.023438 182.957031 190.179688 L 134.253906 212.15625 C 133.199219 212.636719 132.050781 212.875 130.90625 212.875 Z M 93.460938 177.046875 L 131.058594 195.636719 L 172.128906 177.113281 L 180.820312 114.625 L 136.011719 114.625 C 132.148438 114.625 128.835938 111.929688 128.015625 108.164062 C 127.210938 104.394531 129.140625 100.566406 132.640625 98.980469 L 189.078125 73.425781 L 191.71875 60.042969 L 70.761719 60.042969 L 73.664062 70.957031 L 136.011719 70.957031 C 139.875 70.957031 143.199219 73.65625 144.007812 77.421875 C 144.8125 81.1875 142.882812 85.019531 139.371094 86.601562 L 84.601562 111.308594 L 86.042969 120.082031 L 160.390625 120.082031 C 162.746094 120.082031 164.992188 121.097656 166.542969 122.878906 C 168.089844 124.65625 168.800781 127.015625 168.496094 129.351562 L 163.414062 167.558594 C 163.042969 170.355469 161.253906 172.769531 158.679688 173.9375 L 134.59375 184.851562 C 132.203125 185.945312 129.457031 185.800781 127.1875 184.523438 L 107.902344 173.609375 C 105.796875 172.417969 104.324219 170.355469 103.886719 167.976562 L 102.097656 158.292969 L 91.09375 158.292969 Z M 93.460938 177.046875 " fill-opacity="1" fill-rule="nonzero"/><g clip-path="url(#66e0d1c424)"><path stroke-linecap="butt" transform="matrix(0.71401, 0.224841, -0.224841, 0.71401, 40.118064, 221.781773)" fill="none" stroke-linejoin="miter" d="M -0.0000687151 2.001625 L 110.001546 1.99833 " stroke="#000000" stroke-width="4" stroke-opacity="1" stroke-miterlimit="4"/></g><path stroke-linecap="round" transform="matrix(0.71401, 0.224841, -0.224841, 0.71401, 40.118064, 221.781773)" fill="none" stroke-linejoin="round" d="M 102.001533 -4.000614 L 110.001546 1.99833 L 101.999404 7.997661 " stroke="#000000" stroke-width="4" stroke-opacity="1" stroke-miterlimit="4"/></svg>