<svg xmlns="http://www.w3.org/2000/svg" xmlns:xlink="http://www.w3.org/1999/xlink" width="350" zoomAndPan="magnify" viewBox="0 0 262.5 262.500001" height="350" preserveAspectRatio="xMidYMid meet" version="1.0"><defs><clipPath id="48fbf73460"><path d="M 141 61 L 235.519531 61 L 235.519531 262 L 141 262 Z M 141 61 " clip-rule="nonzero"/></clipPath><clipPath id="54798e06c4"><path d="M 28.164062 0 L 171 0 L 171 208 L 28.164062 208 Z M 28.164062 0 " clip-rule="nonzero"/></clipPath><clipPath id="8cbf513052"><path d="M 180 0 L 235.519531 0 L 235.519531 58 L 180 58 Z M 180 0 " clip-rule="nonzero"/></clipPath></defs><path stroke-linecap="butt" transform="matrix(0.0662488, 0.745637, -0.745637, 0.0662488, 141.289737, 89.112319)" fill="none" stroke-linejoin="miter" d="M 0.00151214 2.002265 L 110.001017 1.999947 " stroke="#32648d" stroke-width="4" stroke-opacity="1" stroke-miterlimit="4"/><path stroke-linecap="round" transform="matrix(0.0662488, 0.745637, -0.745637, 0.0662488, 141.289737, 89.112319)" fill="none" stroke-linejoin="round" d="M 102.000269 -4.002107 L 110.001017 1.999947 L 102.002597 8.000214 " stroke="#32648d" stroke-width="4" stroke-opacity="1" stroke-miterlimit="4"/><path fill="#148449" d="M 227.988281 68.972656 L 188.566406 68.960938 L 188.566406 148.828125 C 188.566406 184.023438 186.777344 197.417969 181.140625 208.976562 C 175.765625 220.277344 167.316406 227.636719 149.90625 236.039062 L 186.515625 253.902344 C 203.925781 244.972656 212.375 236.828125 218.773438 223.957031 C 225.6875 210.5625 227.988281 195.058594 227.988281 162.757812 Z M 227.988281 68.972656 " fill-opacity="1" fill-rule="nonzero"/><path fill="#148449" d="M 161.78125 197.636719 L 161.78125 8.320312 L 122.0625 8.320312 L 122.0625 65.128906 C 116.144531 63.457031 111.238281 62.902344 104.792969 62.902344 C 63.269531 62.902344 36.449219 91.175781 36.449219 134.703125 C 36.449219 179.886719 61.722656 203.453125 110.214844 203.453125 C 126.457031 203.453125 141.414062 201.785156 161.78125 197.636719 Z M 76.941406 133.859375 C 76.941406 110.574219 88.539062 97.269531 108.652344 97.269531 L 108.621094 97.269531 C 108.90625 97.257812 109.175781 97.257812 109.460938 97.257812 C 113.972656 97.257812 118.300781 98.074219 122.074219 99.484375 L 122.074219 167.953125 C 116.40625 168.792969 112.796875 169.066406 108.414062 169.066406 C 88.039062 169.066406 76.941406 156.601562 76.941406 133.859375 Z M 76.941406 133.859375 " fill-opacity="1" fill-rule="nonzero"/><path fill="#148449" d="M 186.472656 6.953125 L 228.957031 6.953125 L 228.957031 50.90625 L 186.472656 50.90625 Z M 186.472656 6.953125 " fill-opacity="1" fill-rule="nonzero"/><g clip-path="url(#48fbf73460)"><path fill="#000000" d="M 186.15625 262.089844 C 184.933594 262.089844 183.691406 261.816406 182.570312 261.257812 L 146.320312 243.519531 C 143.507812 242.144531 141.71875 239.285156 141.730469 236.148438 C 141.742188 233.015625 143.53125 230.15625 146.351562 228.792969 C 161.855469 221.28125 168.941406 215.265625 173.457031 205.757812 C 178.492188 195.410156 180.019531 182.289062 180.019531 149.515625 L 180.019531 70.160156 C 180.019531 65.640625 183.679688 61.972656 188.195312 61.972656 L 227.234375 61.972656 C 231.75 61.972656 235.410156 65.652344 235.410156 70.171875 L 235.410156 163.347656 C 235.410156 197.035156 232.882812 213.335938 225.382812 227.90625 C 218.207031 242.394531 208.242188 251.761719 189.894531 261.183594 C 188.730469 261.78125 187.441406 262.089844 186.15625 262.089844 Z M 167.566406 235.679688 L 186.003906 244.707031 C 198.902344 237.613281 205.582031 230.996094 210.773438 220.507812 C 216.964844 208.453125 219.046875 194.066406 219.046875 163.335938 L 219.046875 78.359375 L 196.359375 78.347656 L 196.359375 149.503906 C 196.359375 185.59375 194.527344 199.808594 188.195312 212.855469 C 183.824219 222.078125 177.597656 229.109375 167.566406 235.679688 Z M 167.566406 235.679688 " fill-opacity="1" fill-rule="nonzero"/></g><g clip-path="url(#54798e06c4)"><path fill="#000000" d="M 110.234375 207.648438 C 57.382812 207.648438 28.273438 181.785156 28.273438 134.84375 C 28.273438 89.582031 59.027344 59.179688 104.816406 59.179688 C 108.140625 59.179688 111.097656 59.320312 113.929688 59.628906 L 113.929688 8.273438 C 113.929688 3.753906 117.59375 0.0859375 122.105469 0.0859375 L 161.832031 0.0859375 C 166.347656 0.0859375 170.011719 3.753906 170.011719 8.273438 L 170.011719 193.988281 C 170.011719 197.917969 167.21875 201.292969 163.371094 202.035156 C 142.527344 206.019531 127.132812 207.648438 110.234375 207.648438 Z M 161.824219 193.988281 L 161.933594 193.988281 Z M 104.816406 75.554688 C 67.695312 75.554688 44.628906 98.273438 44.628906 134.84375 C 44.628906 172.8125 66.09375 191.261719 110.234375 191.261719 C 124.210938 191.261719 137.183594 190.058594 153.648438 187.15625 L 153.648438 16.460938 L 130.273438 16.460938 L 130.273438 69.453125 C 130.273438 71.984375 129.105469 74.386719 127.089844 75.9375 C 125.074219 77.488281 122.457031 78 120.023438 77.378906 C 114.988281 76.046875 110.867188 75.554688 104.816406 75.554688 Z M 108.4375 175.324219 C 83.613281 175.324219 68.785156 159.898438 68.785156 134.058594 C 68.785156 107.8125 84.039062 91.515625 108.609375 91.480469 C 108.621094 91.480469 108.632812 91.480469 108.644531 91.480469 C 108.621094 91.4375 109.40625 91.460938 109.484375 91.460938 C 114.75 91.460938 120.058594 92.34375 124.8125 94.015625 C 128.082031 95.160156 130.273438 98.261719 130.273438 101.742188 L 130.273438 166.097656 C 130.273438 170.191406 127.265625 173.652344 123.21875 174.207031 C 117.320312 175.015625 113.320312 175.324219 108.4375 175.324219 Z M 108.6875 107.847656 C 93.054688 107.847656 85.140625 116.667969 85.140625 134.046875 C 85.140625 151.03125 92.542969 158.9375 108.4375 158.9375 C 110.367188 158.9375 112.097656 158.882812 113.929688 158.75 L 113.929688 108.152344 C 112.371094 107.933594 110.78125 107.921875 109.199219 107.835938 C 109.023438 107.847656 108.859375 107.847656 108.6875 107.847656 Z M 108.6875 107.847656 " fill-opacity="1" fill-rule="nonzero"/></g><g clip-path="url(#8cbf513052)"><path fill="#000000" d="M 227.234375 57.738281 L 188.195312 57.738281 C 183.679688 57.738281 180.019531 54.070312 180.019531 49.550781 L 180.019531 8.320312 C 180.019531 3.800781 183.679688 0.132812 188.195312 0.132812 L 227.234375 0.132812 C 231.75 0.132812 235.410156 3.800781 235.410156 8.320312 L 235.410156 49.550781 C 235.410156 54.070312 231.75 57.738281 227.234375 57.738281 Z M 196.371094 41.363281 L 219.058594 41.363281 L 219.058594 16.507812 L 196.371094 16.507812 Z M 196.371094 41.363281 " fill-opacity="1" fill-rule="nonzero"/></g></svg>