<svg xmlns="http://www.w3.org/2000/svg" xmlns:xlink="http://www.w3.org/1999/xlink" width="350" zoomAndPan="magnify" viewBox="0 0 262.5 262.500001" height="350" preserveAspectRatio="xMidYMid meet" version="1.0"><path stroke-linecap="butt" transform="matrix(0.0662488, 0.745637, -0.745637, 0.0662488, 57.697125, 43.755583)" fill="none" stroke-linejoin="miter" d="M -0.0016727 1.998269 L 109.997371 2.001148 " stroke="#32648d" stroke-width="4" stroke-opacity="1" stroke-miterlimit="4"/><path stroke-linecap="round" transform="matrix(0.0662488, 0.745637, -0.745637, 0.0662488, 57.697125, 43.755583)" fill="none" stroke-linejoin="round" d="M 102.001821 -4.000444 L 109.997371 2.001148 L 101.998951 8.001416 " stroke="#32648d" stroke-width="4" stroke-opacity="1" stroke-miterlimit="4"/><path fill="#ffe577" d="M 228.75 30.675781 C 255.257812 59.199219 257.6875 204.191406 207.371094 231.558594 C 157.054688 258.925781 14.898438 260.09375 13.640625 179.160156 C 12.378906 98.226562 4.203125 28.347656 79.683594 21.941406 C 155.164062 15.53125 201.707031 1.554688 228.75 30.675781 Z M 228.75 30.675781 " fill-opacity="1" fill-rule="nonzero"/><path fill="#000000" d="M 239.066406 244.449219 L 25.902344 244.449219 C 23.34375 244.449219 21.265625 242.375 21.265625 239.820312 L 21.265625 26.8125 C 21.265625 24.253906 23.34375 22.179688 25.902344 22.179688 L 239.066406 22.179688 C 241.625 22.179688 243.699219 24.253906 243.699219 26.8125 L 243.699219 239.820312 C 243.699219 242.375 241.625 244.449219 239.066406 244.449219 Z M 30.535156 235.1875 L 234.433594 235.1875 L 234.433594 31.441406 L 30.535156 31.441406 Z M 111.972656 228.039062 C 104.347656 228.039062 97.285156 226.214844 91.316406 222.648438 C 85.707031 219.277344 81.019531 213.953125 77.765625 207.230469 C 76.726562 205.089844 77.476562 202.515625 79.507812 201.265625 L 95.71875 191.28125 C 96.449219 190.835938 97.285156 190.597656 98.144531 190.597656 C 100.925781 190.597656 102.148438 192.699219 102.882812 193.957031 C 105.078125 197.636719 106.300781 199.199219 108.664062 200.386719 C 108.710938 200.273438 109.960938 200.691406 111.519531 200.691406 C 113.308594 200.691406 115.441406 200.246094 116.375 198.292969 C 117.332031 196.273438 117.246094 188.429688 117.191406 182.695312 L 117.144531 176.230469 L 117.230469 124.710938 C 117.230469 122.15625 119.304688 120.082031 121.863281 120.082031 L 141.828125 120.082031 C 143.113281 120.082031 144.339844 120.617188 145.21875 121.5625 C 146.097656 122.507812 146.542969 123.765625 146.441406 125.046875 L 146.441406 143.566406 C 146.46875 155.765625 146.488281 167.925781 146.421875 180.074219 L 146.480469 184.855469 C 146.636719 194.625 146.785156 203.847656 142.328125 211.972656 C 138.933594 218.890625 132.207031 224.195312 123.457031 226.714844 C 119.535156 227.605469 115.691406 228.039062 111.972656 228.039062 Z M 88.144531 206.832031 C 90.34375 210.203125 93.039062 212.886719 96.070312 214.710938 C 102.789062 218.714844 111.925781 219.832031 121.160156 217.757812 C 125.273438 216.566406 131.121094 213.777344 134.097656 207.71875 C 137.46875 201.550781 137.351562 193.894531 137.203125 185.011719 L 137.144531 180.074219 C 137.21875 167.90625 137.191406 155.765625 137.164062 143.597656 L 137.144531 129.351562 L 126.46875 129.351562 L 126.394531 176.242188 L 126.441406 182.613281 C 126.550781 193.421875 126.515625 199.210938 124.542969 202.625 C 121.027344 209.980469 112.28125 211.183594 105.234375 208.988281 C 100.890625 206.886719 98.527344 204.320312 96.671875 201.582031 Z M 98.136719 195.71875 L 94.539062 198.070312 Z M 98.351562 195.578125 L 98.414062 195.53125 Z M 188.59375 227.105469 C 176.117188 227.105469 163.679688 222.769531 156.21875 215.242188 L 154.253906 213.007812 C 151.902344 210.359375 149.863281 208.070312 148.074219 203.988281 C 147.117188 201.820312 147.960938 199.292969 150.011719 198.117188 L 166.265625 188.789062 C 168.40625 187.578125 171.09375 188.214844 172.449219 190.253906 C 176.589844 196.523438 179.675781 198.921875 185.171875 200.136719 C 189.855469 200.691406 194.402344 199.792969 196.277344 197.765625 C 196.628906 197.375 197.695312 196.226562 197.121094 193.226562 C 196.265625 190.511719 190.214844 187.964844 184.375 185.511719 C 178.703125 183.132812 172.28125 180.425781 166.738281 176.289062 C 159.878906 171.675781 155.152344 163.628906 153.976562 154.347656 C 152.808594 145.132812 155.359375 136.207031 160.992188 129.832031 C 164.847656 125.074219 171.289062 121.25 178.554688 119.480469 L 185.332031 118.601562 C 198.574219 118.265625 207.742188 121.675781 214.535156 129.289062 C 216.386719 131.082031 217.851562 133.167969 220.1875 136.796875 C 220.855469 137.835938 221.078125 139.113281 220.808594 140.316406 C 220.539062 141.519531 219.789062 142.578125 218.734375 143.226562 C 212.367188 147.1875 212.367188 147.1875 203.226562 153.152344 C 202.097656 153.886719 200.714844 154.097656 199.425781 153.726562 C 198.140625 153.355469 197.0625 152.457031 196.5 151.246094 C 195.171875 148.429688 193.097656 146.457031 190.660156 145.707031 C 188.621094 145.097656 186.183594 145.28125 184.636719 146.171875 C 183.515625 146.820312 183.207031 147.632812 183.078125 148.1875 C 182.875 148.921875 182.699219 149.476562 183.449219 152.164062 C 184.21875 153.8125 188.601562 155.691406 192.828125 157.515625 C 194.191406 158.097656 195.5625 158.691406 196.90625 159.320312 C 215.0625 166.675781 224.164062 175.640625 226.183594 188.28125 C 226.285156 188.882812 226.257812 189.484375 226.128906 190.050781 C 226.925781 196.914062 225.785156 201.914062 224.96875 204.421875 C 221.902344 214.90625 213.355469 222.445312 200.929688 225.59375 C 196.933594 226.621094 192.753906 227.105469 188.59375 227.105469 Z M 158.628906 203.847656 C 159.34375 204.804688 160.167969 205.71875 161.167969 206.859375 L 163.023438 208.96875 C 170.464844 216.472656 185.867188 219.878906 198.640625 216.640625 C 203.921875 215.304688 213.210938 211.589844 216.082031 201.773438 C 216.65625 199.996094 217.742188 195.597656 216.621094 189.234375 C 216.535156 188.726562 216.527344 188.226562 216.609375 187.734375 C 215.082031 181.695312 210.390625 174.796875 193.191406 167.824219 C 191.707031 167.136719 190.417969 166.582031 189.148438 166.035156 C 183.273438 163.507812 177.183594 160.886719 174.726562 155.265625 C 173.605469 151.394531 173.226562 148.78125 174.125 145.820312 C 174.847656 142.707031 176.898438 139.957031 179.984375 138.167969 C 183.765625 135.964844 188.75 135.464844 193.347656 136.855469 C 196.765625 137.910156 199.75 139.972656 202.078125 142.835938 C 205.804688 140.410156 207.417969 139.363281 209.742188 137.910156 C 209.046875 136.972656 208.464844 136.316406 207.816406 135.675781 C 202.617188 129.878906 196.203125 127.566406 185.996094 127.832031 L 180.214844 128.582031 C 175.480469 129.769531 170.742188 132.511719 168.046875 135.824219 C 164.050781 140.34375 162.316406 146.625 163.152344 153.191406 C 163.988281 159.730469 167.332031 165.542969 172.085938 168.757812 C 176.90625 172.34375 182.523438 174.714844 187.953125 176.992188 C 196.304688 180.5 204.199219 183.828125 206.101562 190.976562 C 206.117188 191.058594 206.136719 191.144531 206.15625 191.226562 C 207.472656 197.652344 205.203125 201.757812 203.070312 204.0625 C 199.058594 208.394531 191.949219 210.292969 183.589844 209.265625 C 175.820312 207.5625 171.152344 203.933594 167.230469 198.921875 Z M 158.628906 203.847656 " fill-opacity="1" fill-rule="nonzero"/></svg>