<svg xmlns="http://www.w3.org/2000/svg" xmlns:xlink="http://www.w3.org/1999/xlink" width="350" zoomAndPan="magnify" viewBox="0 0 262.5 262.500001" height="350" preserveAspectRatio="xMidYMid meet" version="1.0"><defs><clipPath id="efdf7499b5"><path d="M 105.679688 37.214844 L 113.011719 37.214844 L 113.011719 44.546875 L 105.679688 44.546875 Z M 105.679688 37.214844 " clip-rule="nonzero"/></clipPath><clipPath id="f7e20c4848"><path d="M 109.34375 37.214844 C 107.320312 37.214844 105.679688 38.855469 105.679688 40.882812 C 105.679688 42.90625 107.320312 44.546875 109.34375 44.546875 C 111.367188 44.546875 113.011719 42.90625 113.011719 40.882812 C 113.011719 38.855469 111.367188 37.214844 109.34375 37.214844 Z M 109.34375 37.214844 " clip-rule="nonzero"/></clipPath><clipPath id="fa4e07389c"><path d="M 16.539062 135 L 54 135 L 54 193 L 16.539062 193 Z M 16.539062 135 " clip-rule="nonzero"/></clipPath><clipPath id="2606d845d2"><path d="M 16.539062 122 L 83 122 L 83 158 L 16.539062 158 Z M 16.539062 122 " clip-rule="nonzero"/></clipPath><clipPath id="12a13cb9ac"><path d="M 209 135 L 245.601562 135 L 245.601562 193 L 209 193 Z M 209 135 " clip-rule="nonzero"/></clipPath><clipPath id="1b7bf9e966"><path d="M 180 122 L 245.601562 122 L 245.601562 158 L 180 158 Z M 180 122 " clip-rule="nonzero"/></clipPath><clipPath id="505d5c6480"><path d="M 180 86 L 245.601562 86 L 245.601562 111 L 180 111 Z M 180 86 " clip-rule="nonzero"/></clipPath><clipPath id="1f74923189"><path d="M 16.539062 102 L 83 102 L 83 111 L 16.539062 111 Z M 16.539062 102 " clip-rule="nonzero"/></clipPath><clipPath id="1af5a381f2"><path d="M 16.539062 86 L 83 86 L 83 95 L 16.539062 95 Z M 16.539062 86 " clip-rule="nonzero"/></clipPath></defs><g clip-path="url(#efdf7499b5)"><g clip-path="url(#f7e20c4848)"><path fill="#6d8092" d="M 105.679688 37.214844 L 113.011719 37.214844 L 113.011719 44.546875 L 105.679688 44.546875 Z M 105.679688 37.214844 " fill-opacity="1" fill-rule="nonzero"/></g></g><path fill="#000000" d="M 127.148438 208.710938 C 126.351562 208.710938 125.554688 208.492188 124.863281 208.023438 L 72.335938 173.011719 L 76.871094 166.191406 L 127.296875 199.785156 L 185.957031 166.300781 L 190.023438 173.410156 L 129.183594 208.167969 C 128.566406 208.53125 127.839844 208.710938 127.148438 208.710938 Z M 127.148438 208.710938 " fill-opacity="1" fill-rule="nonzero"/><path fill="#000000" d="M 72.578125 137.355469 L 104.460938 121.417969 L 108.128906 128.753906 L 76.246094 144.6875 Z M 72.578125 137.355469 " fill-opacity="1" fill-rule="nonzero"/><path fill="#000000" d="M 154.402344 128.746094 L 158.074219 121.410156 L 189.957031 137.34375 L 186.289062 144.675781 Z M 154.402344 128.746094 " fill-opacity="1" fill-rule="nonzero"/><path fill="#71869f" d="M 160.367188 229.171875 C 162.363281 229.171875 163.996094 230.988281 163.996094 233.273438 L 163.996094 245.570312 C 163.996094 252.355469 149.332031 257.832031 131.253906 257.832031 C 113.175781 257.832031 98.507812 252.355469 98.507812 245.570312 L 98.507812 233.308594 C 98.507812 231.058594 100.140625 229.207031 102.136719 229.207031 L 160.367188 229.207031 Z M 160.367188 229.171875 " fill-opacity="1" fill-rule="nonzero"/><path fill="#000000" d="M 131.253906 261.898438 C 112.957031 261.898438 94.40625 256.273438 94.40625 245.535156 L 94.40625 233.273438 C 94.40625 228.773438 97.890625 225.109375 102.136719 225.109375 L 160.367188 225.109375 C 164.613281 225.109375 168.097656 228.773438 168.097656 233.273438 L 168.097656 245.535156 C 168.097656 256.273438 149.546875 261.898438 131.253906 261.898438 Z M 102.644531 233.273438 L 102.609375 245.535156 C 102.609375 247.894531 112.664062 253.699219 131.253906 253.699219 C 149.875 253.699219 159.894531 247.894531 159.894531 245.535156 L 159.894531 233.273438 Z M 102.644531 233.273438 " fill-opacity="1" fill-rule="nonzero"/><path fill="#71869f" d="M 160.367188 212.8125 C 162.363281 212.8125 163.996094 214.625 163.996094 216.910156 L 163.996094 229.207031 C 163.996094 235.992188 149.332031 241.472656 131.253906 241.472656 C 113.175781 241.472656 98.507812 235.992188 98.507812 229.207031 L 98.507812 216.945312 C 98.507812 214.695312 100.140625 212.847656 102.136719 212.847656 L 160.367188 212.847656 Z M 160.367188 212.8125 " fill-opacity="1" fill-rule="nonzero"/><path fill="#000000" d="M 131.253906 245.535156 C 112.957031 245.535156 94.40625 239.910156 94.40625 229.171875 L 94.40625 216.910156 C 94.40625 212.410156 97.890625 208.746094 102.136719 208.746094 L 160.367188 208.746094 C 164.613281 208.746094 168.097656 212.410156 168.097656 216.910156 L 168.097656 229.171875 C 168.097656 239.910156 149.546875 245.535156 131.253906 245.535156 Z M 102.644531 216.910156 L 102.609375 229.171875 C 102.609375 231.53125 112.664062 237.371094 131.253906 237.371094 C 149.875 237.371094 159.894531 231.566406 159.894531 229.171875 L 159.894531 216.910156 Z M 102.644531 216.910156 " fill-opacity="1" fill-rule="nonzero"/><path fill="#71869f" d="M 160.367188 196.449219 C 162.363281 196.449219 163.996094 198.261719 163.996094 200.546875 L 163.996094 212.847656 C 163.996094 219.632812 149.332031 225.109375 131.253906 225.109375 C 113.175781 225.109375 98.507812 219.632812 98.507812 212.847656 L 98.507812 200.585938 C 98.507812 198.335938 100.140625 196.484375 102.136719 196.484375 L 160.367188 196.484375 Z M 160.367188 196.449219 " fill-opacity="1" fill-rule="nonzero"/><path fill="#000000" d="M 131.253906 229.171875 C 112.957031 229.171875 94.40625 223.550781 94.40625 212.8125 L 94.40625 200.546875 C 94.40625 196.050781 97.890625 192.347656 102.136719 192.347656 L 160.367188 192.347656 C 164.613281 192.347656 168.097656 196.011719 168.097656 200.546875 L 168.097656 212.8125 C 168.097656 223.550781 149.546875 229.171875 131.253906 229.171875 Z M 102.644531 200.546875 L 102.609375 212.8125 C 102.609375 215.167969 112.664062 220.972656 131.253906 220.972656 C 149.875 220.972656 159.894531 215.167969 159.894531 212.8125 L 159.894531 200.546875 Z M 102.644531 200.546875 " fill-opacity="1" fill-rule="nonzero"/><path fill="#ffffff" d="M 163.996094 196.449219 C 163.996094 196.851562 163.945312 197.25 163.839844 197.652344 C 163.734375 198.050781 163.578125 198.445312 163.367188 198.839844 C 163.15625 199.234375 162.898438 199.625 162.585938 200.007812 C 162.273438 200.390625 161.914062 200.769531 161.503906 201.140625 C 161.09375 201.511719 160.636719 201.875 160.128906 202.230469 C 159.625 202.582031 159.074219 202.925781 158.476562 203.261719 C 157.882812 203.59375 157.242188 203.917969 156.5625 204.226562 C 155.882812 204.539062 155.164062 204.835938 154.40625 205.121094 C 153.648438 205.402344 152.855469 205.671875 152.023438 205.925781 C 151.195312 206.183594 150.335938 206.421875 149.445312 206.644531 C 148.550781 206.867188 147.632812 207.074219 146.6875 207.261719 C 145.742188 207.453125 144.773438 207.625 143.78125 207.777344 C 142.792969 207.929688 141.785156 208.066406 140.757812 208.183594 C 139.730469 208.300781 138.691406 208.398438 137.640625 208.476562 C 136.589844 208.554688 135.527344 208.613281 134.460938 208.652344 C 133.394531 208.691406 132.324219 208.710938 131.253906 208.710938 C 130.179688 208.710938 129.109375 208.691406 128.042969 208.652344 C 126.976562 208.613281 125.914062 208.554688 124.863281 208.476562 C 123.8125 208.398438 122.773438 208.300781 121.746094 208.183594 C 120.722656 208.066406 119.710938 207.929688 118.722656 207.777344 C 117.730469 207.625 116.761719 207.453125 115.816406 207.261719 C 114.871094 207.074219 113.953125 206.867188 113.058594 206.644531 C 112.167969 206.421875 111.308594 206.183594 110.480469 205.925781 C 109.652344 205.671875 108.855469 205.402344 108.097656 205.121094 C 107.339844 204.835938 106.621094 204.539062 105.941406 204.226562 C 105.261719 203.917969 104.621094 203.59375 104.027344 203.261719 C 103.429688 202.925781 102.878906 202.582031 102.375 202.230469 C 101.867188 201.875 101.410156 201.511719 101 201.140625 C 100.589844 200.769531 100.230469 200.390625 99.917969 200.007812 C 99.605469 199.625 99.347656 199.234375 99.136719 198.839844 C 98.929688 198.445312 98.769531 198.050781 98.664062 197.652344 C 98.5625 197.25 98.507812 196.851562 98.507812 196.449219 C 98.507812 196.046875 98.5625 195.644531 98.664062 195.246094 C 98.769531 194.847656 98.929688 194.449219 99.136719 194.054688 C 99.347656 193.664062 99.605469 193.273438 99.917969 192.890625 C 100.230469 192.503906 100.589844 192.128906 101 191.757812 C 101.410156 191.386719 101.867188 191.023438 102.375 190.667969 C 102.878906 190.3125 103.429688 189.96875 104.027344 189.636719 C 104.621094 189.300781 105.261719 188.980469 105.941406 188.667969 C 106.621094 188.359375 107.339844 188.0625 108.097656 187.777344 C 108.855469 187.492188 109.652344 187.222656 110.480469 186.96875 C 111.308594 186.714844 112.167969 186.476562 113.058594 186.253906 C 113.953125 186.03125 114.871094 185.824219 115.816406 185.632812 C 116.761719 185.445312 117.730469 185.273438 118.722656 185.121094 C 119.710938 184.964844 120.722656 184.832031 121.746094 184.714844 C 122.773438 184.597656 123.8125 184.5 124.863281 184.421875 C 125.914062 184.34375 126.976562 184.285156 128.042969 184.246094 C 129.109375 184.207031 130.179688 184.1875 131.253906 184.1875 C 132.324219 184.1875 133.394531 184.207031 134.460938 184.246094 C 135.527344 184.285156 136.589844 184.34375 137.640625 184.421875 C 138.691406 184.5 139.730469 184.597656 140.757812 184.714844 C 141.785156 184.832031 142.792969 184.964844 143.78125 185.121094 C 144.773438 185.273438 145.742188 185.445312 146.6875 185.632812 C 147.632812 185.824219 148.550781 186.03125 149.445312 186.253906 C 150.335938 186.476562 151.195312 186.714844 152.023438 186.96875 C 152.855469 187.222656 153.648438 187.492188 154.40625 187.777344 C 155.164062 188.0625 155.882812 188.359375 156.5625 188.667969 C 157.242188 188.980469 157.882812 189.300781 158.476562 189.636719 C 159.074219 189.96875 159.625 190.3125 160.128906 190.667969 C 160.636719 191.023438 161.09375 191.386719 161.503906 191.757812 C 161.914062 192.128906 162.273438 192.503906 162.585938 192.890625 C 162.898438 193.273438 163.15625 193.664062 163.367188 194.054688 C 163.578125 194.449219 163.734375 194.847656 163.839844 195.246094 C 163.945312 195.644531 163.996094 196.046875 163.996094 196.449219 Z M 163.996094 196.449219 " fill-opacity="1" fill-rule="nonzero"/><path fill="#000000" d="M 131.253906 212.8125 C 112.957031 212.8125 94.40625 207.1875 94.40625 196.449219 C 94.40625 185.710938 112.917969 180.085938 131.253906 180.085938 C 149.585938 180.085938 168.097656 185.710938 168.097656 196.449219 C 168.097656 207.1875 149.546875 212.8125 131.253906 212.8125 Z M 131.253906 188.285156 C 112.628906 188.285156 102.609375 194.089844 102.609375 196.449219 C 102.609375 198.808594 112.664062 204.613281 131.253906 204.613281 C 149.875 204.613281 159.894531 198.808594 159.894531 196.449219 C 159.894531 194.089844 149.875 188.285156 131.253906 188.285156 Z M 131.253906 188.285156 " fill-opacity="1" fill-rule="nonzero"/><path fill="#71869f" d="M 168.097656 57.359375 L 94.40625 57.359375 L 94.40625 4.175781 L 168.097656 4.175781 Z M 168.097656 57.359375 " fill-opacity="1" fill-rule="nonzero"/><path fill="#000000" d="M 172.199219 61.453125 L 90.304688 61.453125 L 90.304688 0.105469 L 172.164062 0.105469 L 172.164062 61.453125 Z M 98.507812 53.289062 L 163.996094 53.289062 L 163.996094 8.304688 L 98.507812 8.304688 Z M 98.507812 53.289062 " fill-opacity="1" fill-rule="nonzero"/><path fill="#71869f" d="M 123.046875 53.289062 L 139.457031 53.289062 L 143.523438 69.652344 L 118.980469 69.652344 Z M 123.046875 53.289062 " fill-opacity="1" fill-rule="nonzero"/><path fill="#000000" d="M 148.785156 73.75 L 113.753906 73.75 L 119.890625 49.226562 L 142.652344 49.226562 Z M 124.210938 65.550781 L 138.292969 65.550781 L 136.261719 57.390625 L 126.277344 57.390625 Z M 124.210938 65.550781 " fill-opacity="1" fill-rule="nonzero"/><path fill="#000000" d="M 127.148438 32.828125 L 127.148438 24.628906 L 135.355469 24.628906 L 135.355469 32.828125 C 127.148438 32.828125 135.355469 32.828125 127.148438 32.828125 Z M 127.148438 32.828125 " fill-opacity="1" fill-rule="nonzero"/><path fill="#d1f7ff" d="M 131.253906 155.527344 L 102.609375 142.390625 L 102.609375 107.347656 L 131.253906 107.347656 Z M 131.253906 155.527344 " fill-opacity="1" fill-rule="nonzero"/><path fill="#000000" d="M 131.253906 159.625 C 130.671875 159.625 130.089844 159.515625 129.546875 159.261719 L 100.902344 146.128906 C 99.453125 145.476562 98.507812 144.023438 98.507812 142.390625 L 98.507812 107.308594 C 98.507812 105.0625 100.324219 103.210938 102.609375 103.210938 L 131.253906 103.210938 C 133.503906 103.210938 135.355469 105.023438 135.355469 107.308594 L 135.355469 155.527344 C 135.355469 156.902344 134.628906 158.210938 133.464844 158.972656 C 132.777344 159.40625 132.015625 159.625 131.253906 159.625 Z M 106.710938 139.78125 L 127.1875 149.175781 L 127.1875 111.410156 L 106.710938 111.410156 Z M 106.710938 139.78125 " fill-opacity="1" fill-rule="nonzero"/><path fill="#2ed9f5" d="M 159.894531 142.390625 L 131.253906 155.527344 L 131.253906 107.347656 L 159.894531 107.347656 Z M 159.894531 142.390625 " fill-opacity="1" fill-rule="nonzero"/><path fill="#000000" d="M 131.253906 159.625 C 130.488281 159.625 129.726562 159.40625 129.039062 158.972656 C 127.875 158.210938 127.148438 156.941406 127.148438 155.527344 L 127.148438 107.347656 C 127.148438 105.097656 128.964844 103.246094 131.253906 103.246094 L 159.894531 103.246094 C 162.144531 103.246094 163.996094 105.0625 163.996094 107.347656 L 163.996094 142.429688 C 163.996094 144.023438 163.050781 145.476562 161.601562 146.164062 L 132.957031 159.296875 C 132.414062 159.515625 131.832031 159.625 131.253906 159.625 Z M 135.355469 111.410156 L 135.355469 149.140625 L 155.828125 139.742188 L 155.828125 111.410156 Z M 159.894531 142.390625 L 159.929688 142.390625 Z M 159.894531 142.390625 " fill-opacity="1" fill-rule="nonzero"/><path fill="#ffffff" d="M 131.253906 120.480469 L 102.609375 107.347656 L 131.253906 94.175781 L 159.894531 107.347656 Z M 131.253906 120.480469 " fill-opacity="1" fill-rule="nonzero"/><path fill="#000000" d="M 131.253906 124.578125 C 130.671875 124.578125 130.089844 124.46875 129.546875 124.214844 L 100.902344 111.082031 C 99.453125 110.429688 98.507812 108.980469 98.507812 107.347656 C 98.507812 105.75 99.453125 104.300781 100.902344 103.609375 L 129.546875 90.476562 C 130.636719 89.96875 131.871094 89.96875 132.957031 90.476562 L 161.601562 103.609375 C 163.050781 104.261719 163.996094 105.714844 163.996094 107.347656 C 163.996094 108.941406 163.050781 110.394531 161.601562 111.082031 L 132.957031 124.214844 C 132.414062 124.433594 131.832031 124.578125 131.253906 124.578125 Z M 112.410156 107.347656 L 131.253906 115.980469 L 150.09375 107.347656 L 131.253906 98.675781 Z M 112.410156 107.347656 " fill-opacity="1" fill-rule="nonzero"/><path fill="#d1f7ff" d="M 49.390625 188.285156 L 20.75 175.117188 L 20.75 140.070312 L 49.390625 140.070312 Z M 49.390625 188.285156 " fill-opacity="1" fill-rule="nonzero"/><g clip-path="url(#fa4e07389c)"><path fill="#000000" d="M 49.390625 192.347656 C 48.8125 192.347656 48.230469 192.238281 47.6875 191.984375 L 19.042969 178.851562 C 17.589844 178.199219 16.648438 176.75 16.648438 175.117188 L 16.648438 140.070312 C 16.648438 137.820312 18.460938 135.972656 20.75 135.972656 L 49.390625 135.972656 C 51.640625 135.972656 53.492188 137.785156 53.492188 140.070312 L 53.492188 188.285156 C 53.492188 189.664062 52.769531 190.96875 51.605469 191.730469 C 50.917969 192.132812 50.152344 192.347656 49.390625 192.347656 Z M 24.816406 172.503906 L 45.289062 181.902344 L 45.289062 144.171875 L 24.816406 144.171875 Z M 24.816406 172.503906 " fill-opacity="1" fill-rule="nonzero"/></g><path fill="#2ed9f5" d="M 78.035156 175.117188 L 49.390625 188.285156 L 49.390625 140.070312 L 78.035156 140.070312 Z M 78.035156 175.117188 " fill-opacity="1" fill-rule="nonzero"/><path fill="#000000" d="M 49.390625 192.347656 C 48.628906 192.347656 47.867188 192.132812 47.175781 191.695312 C 46.015625 190.933594 45.289062 189.664062 45.289062 188.25 L 45.289062 140.070312 C 45.289062 137.820312 47.105469 135.972656 49.390625 135.972656 L 78.035156 135.972656 C 80.285156 135.972656 82.136719 137.785156 82.136719 140.070312 L 82.136719 175.152344 C 82.136719 176.75 81.191406 178.199219 79.738281 178.890625 L 51.097656 192.023438 C 50.554688 192.238281 49.972656 192.347656 49.390625 192.347656 Z M 53.492188 144.132812 L 53.492188 181.863281 L 73.96875 172.46875 L 73.96875 144.132812 Z M 78.035156 175.117188 L 78.070312 175.117188 Z M 78.035156 175.117188 " fill-opacity="1" fill-rule="nonzero"/><path fill="#ffffff" d="M 49.390625 153.203125 L 20.75 140.070312 L 49.390625 126.902344 L 78.035156 140.070312 Z M 49.390625 153.203125 " fill-opacity="1" fill-rule="nonzero"/><g clip-path="url(#2606d845d2)"><path fill="#000000" d="M 49.390625 157.304688 C 48.8125 157.304688 48.230469 157.195312 47.6875 156.941406 L 19.042969 143.808594 C 17.589844 143.152344 16.648438 141.703125 16.648438 140.070312 C 16.648438 138.472656 17.589844 137.023438 19.042969 136.332031 L 47.6875 123.199219 C 48.773438 122.691406 50.007812 122.691406 51.097656 123.199219 L 79.738281 136.332031 C 81.191406 136.988281 82.136719 138.4375 82.136719 140.070312 C 82.136719 141.667969 81.191406 143.117188 79.738281 143.808594 L 51.097656 156.941406 C 50.554688 157.15625 49.972656 157.304688 49.390625 157.304688 Z M 30.550781 140.070312 L 49.390625 148.703125 L 68.230469 140.070312 L 49.390625 131.4375 Z M 30.550781 140.070312 " fill-opacity="1" fill-rule="nonzero"/></g><path fill="#d1f7ff" d="M 213.113281 188.285156 L 184.46875 175.117188 L 184.46875 140.070312 L 213.113281 140.070312 Z M 213.113281 188.285156 " fill-opacity="1" fill-rule="nonzero"/><path fill="#000000" d="M 213.113281 192.347656 C 212.53125 192.347656 211.949219 192.238281 211.40625 191.984375 L 182.765625 178.851562 C 181.3125 178.199219 180.367188 176.75 180.367188 175.117188 L 180.367188 140.070312 C 180.367188 137.820312 182.183594 135.972656 184.46875 135.972656 L 213.113281 135.972656 C 215.363281 135.972656 217.214844 137.785156 217.214844 140.070312 L 217.214844 188.285156 C 217.214844 189.664062 216.488281 190.96875 215.328125 191.730469 C 214.636719 192.132812 213.875 192.347656 213.113281 192.347656 Z M 188.574219 172.503906 L 209.046875 181.902344 L 209.046875 144.171875 L 188.574219 144.171875 Z M 188.574219 172.503906 " fill-opacity="1" fill-rule="nonzero"/><path fill="#2ed9f5" d="M 241.753906 175.117188 L 213.113281 188.285156 L 213.113281 140.070312 L 241.753906 140.070312 Z M 241.753906 175.117188 " fill-opacity="1" fill-rule="nonzero"/><g clip-path="url(#12a13cb9ac)"><path fill="#000000" d="M 213.113281 192.347656 C 212.351562 192.347656 211.585938 192.132812 210.898438 191.695312 C 209.738281 190.933594 209.011719 189.664062 209.011719 188.25 L 209.011719 140.070312 C 209.011719 137.820312 210.824219 135.972656 213.113281 135.972656 L 241.753906 135.972656 C 244.003906 135.972656 245.855469 137.785156 245.855469 140.070312 L 245.855469 175.152344 C 245.855469 176.75 244.914062 178.199219 243.460938 178.890625 L 214.820312 192.023438 C 214.273438 192.238281 213.691406 192.347656 213.113281 192.347656 Z M 217.214844 144.132812 L 217.214844 181.863281 L 237.6875 172.46875 L 237.6875 144.132812 Z M 241.753906 175.117188 L 241.789062 175.117188 Z M 241.753906 175.117188 " fill-opacity="1" fill-rule="nonzero"/></g><path fill="#ffffff" d="M 213.113281 153.203125 L 184.46875 140.070312 L 213.113281 126.902344 L 241.753906 140.070312 Z M 213.113281 153.203125 " fill-opacity="1" fill-rule="nonzero"/><g clip-path="url(#1b7bf9e966)"><path fill="#000000" d="M 213.113281 157.304688 C 212.53125 157.304688 211.949219 157.195312 211.40625 156.941406 L 182.765625 143.808594 C 181.3125 143.152344 180.367188 141.703125 180.367188 140.070312 C 180.367188 138.472656 181.3125 137.023438 182.765625 136.332031 L 211.40625 123.199219 C 212.496094 122.691406 213.730469 122.691406 214.820312 123.199219 L 243.460938 136.332031 C 244.914062 136.988281 245.855469 138.4375 245.855469 140.070312 C 245.855469 141.667969 244.914062 143.117188 243.460938 143.808594 L 214.820312 156.941406 C 214.273438 157.15625 213.691406 157.304688 213.113281 157.304688 Z M 194.273438 140.070312 L 213.113281 148.703125 L 231.953125 140.070312 L 213.113281 131.4375 Z M 194.273438 140.070312 " fill-opacity="1" fill-rule="nonzero"/></g><path fill="#000000" d="M 127.148438 65.550781 L 135.316406 65.550781 L 135.316406 98.277344 L 127.148438 98.277344 Z M 127.148438 65.550781 " fill-opacity="1" fill-rule="nonzero"/><path fill="#fad151" d="M 237.761719 106.476562 L 188.464844 106.476562 C 186.25 106.476562 184.46875 104.699219 184.46875 102.484375 L 184.46875 94.105469 C 184.46875 91.890625 186.25 90.113281 188.464844 90.113281 L 237.761719 90.113281 C 239.976562 90.113281 241.753906 91.890625 241.753906 94.105469 L 241.753906 102.484375 C 241.753906 104.660156 239.976562 106.476562 237.761719 106.476562 Z M 237.761719 106.476562 " fill-opacity="1" fill-rule="nonzero"/><g clip-path="url(#505d5c6480)"><path fill="#000000" d="M 233.585938 110.539062 L 192.636719 110.539062 C 185.851562 110.539062 180.367188 105.023438 180.367188 98.277344 C 180.367188 91.492188 185.886719 86.015625 192.636719 86.015625 L 233.550781 86.015625 C 240.339844 86.015625 245.820312 91.527344 245.820312 98.277344 C 245.855469 105.0625 240.339844 110.539062 233.585938 110.539062 Z M 192.636719 94.175781 C 190.386719 94.175781 188.535156 96.027344 188.535156 98.277344 C 188.535156 100.527344 190.386719 102.375 192.636719 102.375 L 233.550781 102.375 C 235.800781 102.375 237.652344 100.527344 237.652344 98.277344 C 237.652344 96.027344 235.800781 94.175781 233.550781 94.175781 Z M 192.636719 94.175781 " fill-opacity="1" fill-rule="nonzero"/></g><g clip-path="url(#1f74923189)"><path fill="#000000" d="M 82.136719 110.539062 L 53.492188 110.539062 L 53.492188 102.339844 L 82.136719 102.339844 Z M 45.289062 110.539062 L 16.648438 110.539062 L 16.648438 102.339844 L 45.289062 102.339844 Z M 45.289062 110.539062 " fill-opacity="1" fill-rule="nonzero"/></g><g clip-path="url(#1af5a381f2)"><path fill="#000000" d="M 16.648438 86.015625 L 82.136719 86.015625 L 82.136719 94.214844 L 16.648438 94.214844 Z M 16.648438 86.015625 " fill-opacity="1" fill-rule="nonzero"/></g></svg>