<svg xmlns="http://www.w3.org/2000/svg" xmlns:xlink="http://www.w3.org/1999/xlink" width="350" zoomAndPan="magnify" viewBox="0 0 262.5 262.500001" height="350" preserveAspectRatio="xMidYMid meet" version="1.0"><defs><clipPath id="2dfe1315d4"><path d="M 105.679688 37.214844 L 113.011719 37.214844 L 113.011719 44.546875 L 105.679688 44.546875 Z M 105.679688 37.214844 " clip-rule="nonzero"/></clipPath><clipPath id="22cc2feda6"><path d="M 109.34375 37.214844 C 107.320312 37.214844 105.679688 38.855469 105.679688 40.882812 C 105.679688 42.90625 107.320312 44.546875 109.34375 44.546875 C 111.367188 44.546875 113.011719 42.90625 113.011719 40.882812 C 113.011719 38.855469 111.367188 37.214844 109.34375 37.214844 Z M 109.34375 37.214844 " clip-rule="nonzero"/></clipPath><clipPath id="fc2959d906"><path d="M 7 0 L 256.925781 0 L 256.925781 260 L 7 260 Z M 7 0 " clip-rule="nonzero"/></clipPath></defs><g clip-path="url(#2dfe1315d4)"><g clip-path="url(#22cc2feda6)"><path fill="#6d8092" d="M 105.679688 37.214844 L 113.011719 37.214844 L 113.011719 44.546875 L 105.679688 44.546875 Z M 105.679688 37.214844 " fill-opacity="1" fill-rule="nonzero"/></g></g><path fill="#000000" d="M 239.320312 161.5 C 239.320312 161.511719 239.3125 161.519531 239.296875 161.519531 C 239.285156 161.519531 239.277344 161.511719 239.277344 161.5 C 239.277344 161.484375 239.285156 161.476562 239.296875 161.476562 C 239.3125 161.476562 239.320312 161.484375 239.320312 161.5 Z M 239.320312 161.5 " fill-opacity="1" fill-rule="nonzero"/><path fill="#52b1ff" d="M 207.230469 159.441406 L 207.25 159.464844 L 207.25 159.472656 L 207.21875 159.484375 C 205.648438 160.058594 204.351562 160.296875 203.257812 160.785156 C 202.140625 161.226562 201.242188 162.039062 200.710938 163.078125 L 200.703125 163.101562 C 200.03125 164.347656 199.445312 166.554688 199.617188 170.3125 C 200.0625 170.636719 200.605469 170.886719 201.15625 171.058594 L 201.199219 171.070312 C 203.027344 171.632812 206.09375 172 209.515625 171.945312 C 216.335938 171.871094 224.734375 170.257812 229.195312 168.15625 C 233.039062 166.328125 236.332031 164.117188 239.265625 161.5 C 224.367188 164.617188 215.957031 163.78125 210.792969 161.628906 C 209.449219 161.042969 208.269531 160.320312 207.230469 159.441406 Z M 207.230469 159.441406 " fill-opacity="1" fill-rule="nonzero"/><path fill="#52b1ff" d="M 191.953125 44.941406 L 192.019531 45.039062 L 192.09375 45.125 Z M 191.953125 44.941406 " fill-opacity="1" fill-rule="nonzero"/><path fill="#52b1ff" d="M 134.972656 208.941406 C 134.964844 208.667969 134.972656 208.386719 134.964844 208.117188 C 134.964844 208.007812 134.953125 207.933594 134.953125 207.824219 Z M 134.972656 208.941406 " fill-opacity="1" fill-rule="nonzero"/><path fill="#52b1ff" d="M 123.550781 161.164062 C 122.925781 160.847656 122.1875 160.621094 121.398438 160.511719 L 121.363281 160.511719 L 121.363281 160.492188 L 121.136719 160.492188 C 120.574219 160.546875 119.75 160.742188 118.148438 162.527344 C 114.425781 166.75 113.125 169.402344 110.050781 171.882812 C 106.976562 174.351562 102.992188 175.671875 95.023438 177.328125 C 92.5 177.847656 91.050781 178.421875 90.097656 178.886719 C 90.410156 179.144531 90.378906 179.210938 90.84375 179.460938 C 92.015625 180.109375 93.507812 180.683594 94.722656 180.996094 C 98.140625 181.863281 103.773438 182.871094 109.640625 181.863281 C 115.507812 180.84375 121.613281 178 126.820312 170.605469 C 127.71875 169.328125 127.816406 167.441406 127.082031 165.417969 C 126.34375 163.394531 124.699219 161.648438 123.550781 161.164062 Z M 123.550781 161.164062 " fill-opacity="1" fill-rule="nonzero"/><path fill="#52b1ff" d="M 167.269531 16.261719 L 166.652344 16.378906 C 166.859375 16.335938 167.085938 16.316406 167.289062 16.273438 C 167.28125 16.273438 167.28125 16.261719 167.269531 16.261719 Z M 167.269531 16.261719 " fill-opacity="1" fill-rule="nonzero"/><path fill="#52b1ff" d="M 197.386719 74.703125 C 190.125 74.800781 186.054688 76.695312 183.910156 79.175781 C 180.878906 82.691406 180.597656 88.863281 182.480469 96.464844 C 184.351562 104.074219 188.21875 112.585938 191.855469 119.65625 C 193.675781 123.195312 195.441406 126.378906 196.859375 128.964844 C 198.285156 131.5625 199.335938 133.402344 199.976562 134.972656 C 200.5625 136.425781 201.222656 137.703125 201.882812 138.894531 C 204.695312 132.882812 205.195312 126.984375 204.914062 120.835938 C 204.542969 113.222656 202.789062 105.4375 203.050781 97.558594 C 203.34375 88.34375 205.140625 82.347656 205.292969 75.222656 C 202.921875 74.898438 200.171875 74.703125 197.386719 74.703125 Z M 198.730469 80.179688 L 198.71875 80.265625 C 198.71875 80.300781 198.71875 80.332031 198.71875 80.375 C 198.71875 80.875 198.578125 81.351562 198.332031 81.738281 L 198.339844 81.730469 C 198.003906 82.347656 197.617188 82.886719 197.160156 83.351562 C 196.101562 84.535156 194.683594 85.355469 193.078125 85.636719 L 193.035156 85.648438 C 192.808594 85.679688 192.550781 85.691406 192.277344 85.691406 C 190.914062 85.691406 189.660156 85.257812 188.628906 84.523438 L 188.652344 84.535156 C 188.121094 84.164062 187.65625 83.742188 187.277344 83.265625 L 187.265625 83.253906 C 186.929688 82.886719 186.691406 82.410156 186.59375 81.902344 L 186.59375 81.878906 C 186.59375 81.828125 186.582031 81.773438 186.582031 81.71875 C 186.582031 81.253906 186.757812 80.820312 187.050781 80.496094 C 187.394531 80.09375 187.808594 79.769531 188.285156 79.53125 L 188.304688 79.519531 C 189.332031 78.9375 190.71875 78.503906 192.289062 78.265625 C 192.875 78.179688 193.457031 78.132812 194 78.125 L 194 78.15625 L 194.53125 78.15625 C 195.234375 78.179688 195.882812 78.253906 196.457031 78.394531 C 197.03125 78.523438 197.527344 78.71875 197.929688 78.988281 C 198.332031 79.261719 198.632812 79.671875 198.730469 80.179688 Z M 198.730469 80.179688 " fill-opacity="1" fill-rule="nonzero"/><path fill="#52b1ff" d="M 78.242188 122.414062 C 78.242188 120.464844 78.394531 118.5625 78.675781 116.6875 L 78.65625 116.894531 C 79.757812 108.894531 79.910156 101.410156 79.78125 95.5 C 79.652344 89.742188 79.238281 85.90625 79.238281 83.515625 C 79.238281 83.484375 79.238281 83.449219 79.238281 83.417969 C 79.238281 83.386719 79.238281 83.34375 79.238281 83.308594 L 79.238281 83.253906 L 79.226562 83.191406 L 79.226562 83.179688 C 79.226562 83.160156 79.226562 83.148438 79.226562 83.125 C 79.226562 70.308594 81.480469 58.019531 85.5625 46.617188 C 88.5625 38.5625 93.019531 30.390625 99.699219 23.765625 C 93.128906 21.578125 81.480469 18.242188 68.855469 17.613281 C 67.644531 17.550781 66.226562 17.507812 64.808594 17.507812 L 64.796875 17.507812 L 64.796875 17.515625 C 63.441406 17.515625 62.078125 17.5625 60.738281 17.636719 C 49.933594 18.265625 39.710938 21.4375 32.414062 29.273438 C 25.097656 37.113281 20.277344 49.964844 21.328125 71.238281 C 21.535156 75.265625 23.265625 86.546875 26.234375 99.949219 C 29.210938 113.351562 33.398438 129.128906 38.445312 143.0625 C 43.5 156.996094 49.628906 169.121094 55.453125 174.859375 C 58.386719 177.726562 60.929688 178.886719 63.238281 178.789062 C 65.554688 178.679688 68.347656 177.328125 71.757812 173.179688 C 78.460938 165.015625 84.792969 157.796875 91.332031 150.78125 L 91.117188 151.007812 C 83.210938 144.023438 78.242188 133.816406 78.242188 122.414062 Z M 78.242188 122.414062 " fill-opacity="1" fill-rule="nonzero"/><path fill="#52b1ff" d="M 135.828125 16.976562 L 135.828125 16.953125 C 123.183594 16.988281 114.121094 20.851562 107.238281 26.644531 C 100.144531 32.632812 95.390625 40.828125 92.261719 49.21875 C 88.550781 59.175781 87.28125 68.8125 86.773438 75.351562 L 86.914062 75.265625 C 90.738281 73.101562 95.75 70.933594 101.121094 69.679688 C 106.488281 68.421875 112.269531 68.042969 117.511719 70.101562 C 122.75 72.160156 127.082031 76.996094 128.652344 84.339844 C 136.175781 119.601562 126.3125 132.710938 122.675781 142.605469 C 121.515625 145.453125 120.316406 149.113281 119.308594 152.847656 L 119.132812 153.574219 C 119.589844 153.464844 120.054688 153.335938 120.507812 153.292969 C 123.074219 153.074219 125.089844 153.941406 126.28125 154.460938 C 129.941406 156 132.453125 159.226562 133.804688 162.90625 C 134.160156 163.871094 134.410156 164.910156 134.5625 165.980469 C 134.703125 166.347656 134.777344 166.78125 134.777344 167.226562 C 134.777344 167.269531 134.777344 167.3125 134.777344 167.355469 C 134.605469 172.769531 134.496094 179.125 134.496094 185.511719 C 134.496094 193.078125 134.648438 200.613281 134.929688 208.117188 C 135.179688 213.8125 135.535156 218.859375 135.980469 222.832031 C 136.445312 226.878906 137.097656 229.945312 137.507812 230.984375 C 138.871094 234.449219 140.875 238.984375 144.492188 242.070312 C 148.105469 245.144531 153.292969 247.199219 162.765625 245.144531 C 170.984375 243.359375 176.050781 240.878906 179.4375 237.316406 C 182.828125 233.753906 184.839844 228.796875 186.128906 221.207031 C 188.066406 209.839844 191.953125 176.871094 192.429688 170.667969 C 192.214844 165.992188 192.894531 162.398438 194.378906 159.65625 C 195.894531 156.84375 198.253906 155.121094 200.277344 154.191406 C 201.296875 153.726562 202.25 153.410156 203.027344 153.183594 C 202.078125 151.808594 201.222656 150.660156 200.332031 149.546875 L 200.429688 149.664062 C 197.625 146.246094 195.234375 142.3125 193.425781 138.082031 L 193.308594 137.765625 C 192.214844 135.503906 191.292969 133.792969 190.328125 132.117188 L 190.558594 132.539062 C 189.140625 129.941406 187.339844 126.691406 185.457031 123.042969 C 181.691406 115.734375 177.597656 106.878906 175.464844 98.25 C 173.34375 89.632812 173.039062 80.710938 178.476562 74.421875 C 183.28125 68.835938 191.738281 66.519531 204.414062 67.816406 C 204.046875 66.679688 203.820312 65.738281 203.179688 64.222656 C 200.09375 56.96875 196.382812 50.710938 191.976562 45.039062 C 181.222656 31.160156 163.847656 17.417969 137.019531 16.976562 Z M 135.828125 16.976562 " fill-opacity="1" fill-rule="nonzero"/><path fill="#52b1ff" d="M 86.621094 84.121094 L 86.644531 84.109375 L 86.675781 84.078125 Z M 86.621094 84.121094 " fill-opacity="1" fill-rule="nonzero"/><path fill="#52b1ff" d="M 102.539062 76.792969 L 102.644531 76.78125 L 102.734375 76.75 Z M 102.539062 76.792969 " fill-opacity="1" fill-rule="nonzero"/><path fill="#52b1ff" d="M 115.953125 140.0625 C 120.292969 128.21875 128.835938 119.578125 121.644531 85.863281 C 120.464844 80.34375 118.136719 78.113281 114.933594 76.855469 C 113.375 76.285156 111.566406 75.949219 109.671875 75.949219 C 109.554688 75.949219 109.421875 75.949219 109.304688 75.949219 L 109.324219 75.949219 C 107.019531 75.96875 104.789062 76.261719 102.644531 76.78125 C 98.097656 77.929688 94.09375 79.554688 90.367188 81.632812 C 88.972656 82.398438 87.769531 83.203125 86.644531 84.101562 L 86.4375 84.296875 C 86.503906 85.875 86.808594 89.707031 86.9375 95.347656 C 87.066406 101.519531 86.914062 109.390625 85.734375 117.910156 C 83.179688 136.425781 96.453125 151.753906 112.042969 151.777344 C 112.964844 147.976562 114.457031 144.121094 115.953125 140.0625 Z M 106.738281 86.265625 C 106.230469 85.746094 105.816406 85.160156 105.484375 84.523438 L 105.460938 84.480469 C 105.179688 84.023438 105.015625 83.472656 105.015625 82.875 C 105.015625 82.769531 105.027344 82.660156 105.039062 82.550781 L 105.039062 82.5625 C 105.199219 81.394531 106.152344 80.789062 107.074219 80.453125 C 107.929688 80.171875 108.882812 80.007812 109.898438 80.007812 C 110.050781 80.007812 110.203125 80.007812 110.375 80.019531 L 110.363281 79.976562 C 110.929688 79.976562 111.535156 80.03125 112.140625 80.117188 C 113.777344 80.34375 115.238281 80.789062 116.339844 81.4375 C 116.894531 81.738281 117.371094 82.117188 117.75 82.574219 L 117.757812 82.585938 C 118.128906 83.007812 118.34375 83.558594 118.34375 84.175781 C 118.34375 84.261719 118.34375 84.347656 118.332031 84.4375 L 118.332031 84.425781 C 118.226562 85.074219 117.933594 85.636719 117.53125 86.09375 C 117.089844 86.632812 116.589844 87.097656 116.027344 87.488281 L 116.003906 87.5 C 114.914062 88.300781 113.539062 88.777344 112.054688 88.777344 C 111.761719 88.777344 111.46875 88.753906 111.1875 88.722656 L 111.21875 88.722656 C 109.421875 88.417969 107.886719 87.53125 106.738281 86.265625 Z M 106.738281 86.265625 " fill-opacity="1" fill-rule="nonzero"/><path fill="#52b1ff" d="M 90.152344 81.738281 C 90.226562 81.695312 90.304688 81.675781 90.367188 81.632812 C 90.378906 81.632812 90.390625 81.621094 90.402344 81.609375 Z M 90.152344 81.738281 " fill-opacity="1" fill-rule="nonzero"/><path fill="#52b1ff" d="M 197.746094 40.621094 C 202.433594 46.628906 206.492188 53.472656 209.621094 60.8125 L 209.851562 61.40625 C 211.03125 64.265625 211.820312 66.679688 212.265625 68.554688 C 212.492188 69.496094 212.644531 70.285156 212.695312 71.109375 C 212.71875 71.519531 212.742188 71.941406 212.566406 72.667969 C 212.566406 72.699219 212.511719 72.777344 212.503906 72.808594 C 212.828125 82.292969 210.5 88.722656 210.230469 97.773438 C 210.011719 104.335938 211.667969 112.042969 212.078125 120.457031 C 212.46875 128.359375 211.527344 137.042969 206.449219 145.5625 C 206.882812 146.082031 207.261719 146.601562 207.671875 147.121094 C 221.085938 125.738281 230.753906 102.082031 235.910156 81.914062 C 238.667969 71.054688 240.132812 61.214844 240.261719 53.417969 C 240.371094 45.621094 238.929688 39.972656 237.109375 37.609375 C 222.753906 19.03125 203.34375 14.300781 187.058594 14.171875 L 187.058594 14.183594 L 185.5 14.183594 C 179.222656 14.28125 173.160156 15.003906 167.300781 16.273438 C 180.597656 22.25 190.664062 31.449219 197.746094 40.621094 Z M 197.746094 40.621094 " fill-opacity="1" fill-rule="nonzero"/><g clip-path="url(#fc2959d906)"><path fill="#000000" d="M 137.617188 2.792969 L 137.507812 2.792969 C 124.90625 2.578125 114.089844 5.671875 105.351562 10.828125 C 96.757812 7.804688 78.925781 2.597656 60.121094 3.636719 C 47.03125 4.363281 32.738281 8.390625 22.152344 19.703125 C 11.59375 31.019531 6.019531 48.523438 7.1875 72.34375 C 7.511719 78.914062 9.363281 89.632812 12.429688 103.511719 C 15.503906 117.390625 19.8125 133.640625 25.191406 148.464844 C 30.574219 163.296875 36.464844 176.613281 45.675781 185.664062 C 50.277344 190.199219 56.613281 194.011719 64.070312 193.695312 C 69.3125 193.480469 74.042969 191.152344 78.132812 187.71875 C 80.125 190.371094 82.25 191.53125 84.1875 192.601562 C 86.621094 193.957031 88.992188 194.875 91.453125 195.484375 C 95.867188 196.597656 103.425781 198.09375 112.28125 196.566406 C 115.300781 196.058594 118.472656 195.0625 121.636719 193.640625 C 121.753906 197.214844 121.894531 200.710938 122.023438 204.253906 C 122.46875 215.46875 122.738281 225.828125 126.0625 234.914062 C 126.59375 236.394531 128.066406 244.039062 133.835938 250.785156 C 139.609375 257.539062 150.933594 261.75 163.816406 258.957031 C 172.910156 256.988281 184.460938 253.4375 192.148438 242.371094 C 199.738281 231.4375 203.160156 215.75 203.839844 190.308594 C 204.015625 188.933594 204.21875 187.765625 204.425781 186.671875 L 206.234375 186.832031 L 206.449219 186.832031 C 216.152344 187.277344 226.675781 185.878906 235.464844 181.746094 C 243.25 178.09375 249.140625 174.402344 253.4375 167.855469 C 254.507812 166.230469 255.679688 164.269531 256.003906 160.890625 C 256.328125 157.515625 254.410156 152.230469 251.230469 149.796875 C 244.863281 144.902344 240.867188 146.765625 236.582031 147.664062 C 232.757812 148.5625 228.339844 149.125 223.816406 149.242188 L 223.730469 149.242188 C 236.09375 128.164062 244.960938 105.773438 250.015625 85.960938 C 253.015625 74.269531 254.691406 63.488281 254.824219 54.058594 C 254.964844 44.625 254.207031 36.28125 248.621094 29.058594 C 231.179688 6.496094 206.65625 0.261719 187.675781 0.0429688 C 187.09375 0.03125 186.496094 0.0234375 185.914062 0.03125 L 185.914062 0 C 175.582031 0.0859375 165.644531 1.644531 156.238281 4.429688 L 155.792969 4.578125 C 150.359375 3.5625 144.046875 2.914062 137.617188 2.792969 Z M 163.261719 9.691406 C 169.890625 8.054688 177.511719 7.070312 185.347656 6.972656 L 185.414062 6.972656 L 185.425781 6.929688 C 203.375 6.753906 226.296875 11.855469 242.761719 33.152344 C 246.464844 37.9375 247.570312 44.929688 247.4375 53.546875 C 247.296875 62.15625 245.730469 72.460938 242.847656 83.753906 C 237.261719 105.625 226.71875 131.121094 211.863281 153.996094 C 212.351562 154.351562 212.914062 154.667969 213.5 154.90625 L 213.550781 154.925781 C 216.648438 156.226562 223.71875 157.339844 237.824219 154.40625 C 241.375 153.648438 243.976562 153.140625 246.671875 155.21875 C 247.882812 156.257812 248.640625 157.796875 248.640625 159.515625 C 248.640625 159.625 248.640625 159.734375 248.628906 159.84375 L 248.628906 159.832031 C 248.46875 161.207031 247.980469 162.441406 247.234375 163.46875 C 244.503906 167.617188 239.125 171.546875 232.238281 174.78125 C 226.132812 177.664062 217.375 179.167969 209.613281 179.253906 C 205.714844 179.296875 202.128906 178.996094 199.078125 178.03125 L 198.882812 177.953125 C 197.703125 189.429688 194.996094 212.089844 193.230469 222.429688 C 191.824219 230.765625 189.355469 237.390625 184.636719 242.351562 C 179.925781 247.308594 173.265625 250.296875 164.300781 252.246094 C 153.207031 254.660156 145.105469 252.0625 139.890625 247.613281 C 134.679688 243.171875 132.300781 237.285156 130.859375 233.679688 C 129.875 231.1875 129.367188 227.960938 128.867188 223.652344 C 128.371094 219.34375 128.011719 214.070312 127.761719 208.128906 C 127.523438 202.085938 127.394531 194.984375 127.394531 187.851562 C 127.394531 185.5 127.417969 183.164062 127.4375 180.8125 C 122.96875 184.96875 117.316406 187.894531 111.035156 189.007812 L 110.839844 189.042969 C 103.46875 190.308594 96.898438 189.0625 92.96875 188.066406 C 90.878906 187.535156 89.058594 186.789062 87.347656 185.859375 C 85.550781 184.882812 83.839844 183.769531 82.691406 181.59375 C 82.238281 180.757812 81.96875 179.753906 81.96875 178.691406 C 81.96875 178.269531 82.011719 177.847656 82.097656 177.457031 C 82.488281 176.007812 83.300781 174.773438 84.414062 173.90625 L 84.425781 173.894531 C 86.546875 172.152344 89.339844 171.175781 93.574219 170.289062 C 101.261719 168.6875 103.945312 167.59375 105.578125 166.285156 C 106.964844 165.15625 108.546875 162.882812 111.316406 159.550781 C 111.308594 159.453125 111.296875 159.289062 111.285156 159.136719 L 111.285156 159.105469 C 106.046875 158.953125 101.164062 157.535156 96.898438 155.144531 L 97.058594 155.230469 C 95.457031 156.941406 87.261719 165.710938 77.28125 177.878906 C 73.078125 182.96875 68.433594 185.890625 63.539062 186.097656 C 58.648438 186.300781 54.21875 183.8125 50.453125 180.121094 C 42.925781 172.726562 36.929688 160.003906 31.699219 145.628906 C 26.480469 131.25 22.238281 115.238281 19.21875 101.597656 C 16.1875 87.953125 14.410156 76.953125 14.148438 71.648438 C 13.023438 49.109375 18.230469 33.917969 27.164062 24.339844 C 36.105469 14.757812 48.363281 11.128906 60.304688 10.4375 C 81.75 9.191406 102.105469 16.757812 106.230469 18.382812 C 114.175781 12.925781 124.40625 9.527344 137.171875 9.742188 C 143.601562 9.839844 149.785156 10.695312 155.695312 12.222656 L 155.15625 12.105469 L 155.371094 12.007812 C 157.4375 11.226562 160.082031 10.4375 162.785156 9.789062 Z M 163.261719 9.691406 " fill-opacity="1" fill-rule="nonzero"/></g></svg>