<svg xmlns="http://www.w3.org/2000/svg" xmlns:xlink="http://www.w3.org/1999/xlink" width="350" zoomAndPan="magnify" viewBox="0 0 262.5 262.500001" height="350" preserveAspectRatio="xMidYMid meet" version="1.0"><path stroke-linecap="butt" transform="matrix(-0.612312, 0.430624, -0.430624, -0.612312, 168.491912, 173.248674)" fill="none" stroke-linejoin="miter" d="M 0.00145005 2.00202 L 45.833846 1.999166 " stroke="#32648d" stroke-width="4" stroke-opacity="1" stroke-miterlimit="4"/><path stroke-linecap="round" transform="matrix(-0.612312, 0.430624, -0.430624, -0.612312, 168.491912, 173.248674)" fill="none" stroke-linejoin="round" d="M 37.834002 -3.99694 L 45.833846 1.999166 L 37.834594 8.003332 " stroke="#32648d" stroke-width="4" stroke-opacity="1" stroke-miterlimit="4"/><path fill="#35668f" d="M 43.484375 190.839844 L 57.046875 190.839844 L 57.046875 164.230469 C 57.046875 144.984375 79.355469 123.894531 98.730469 123.894531 L 155.734375 123.894531 C 171.582031 123.894531 184.242188 114.675781 184.242188 98.429688 L 184.242188 42.890625 C 184.242188 27.085938 171.21875 15.246094 155.734375 12.582031 C 136.628906 9.359375 115.851562 9.53125 98.730469 12.636719 L 98.742188 12.625 C 74.609375 16.992188 70.234375 26.101562 70.234375 42.933594 L 70.234375 72.539062 L 127.300781 72.539062 L 48.820312 72.539062 C 32.214844 72.539062 17.691406 82.742188 13.164062 102.09375 C 7.933594 124.285156 7.71875 138.117188 13.164062 161.296875 C 17.21875 178.515625 26.890625 190.839844 43.484375 190.839844 Z M 43.484375 190.839844 " fill-opacity="1" fill-rule="nonzero"/><path fill="#000000" d="M 197.644531 81.480469 L 197.65625 81.480469 L 197.65625 81.4375 Z M 197.644531 81.480469 " fill-opacity="1" fill-rule="nonzero"/><path fill="#f2bb30" d="M 217.613281 187.691406 C 234.527344 187.691406 244.921875 180.984375 250.789062 162.203125 C 256.878906 142.859375 256.609375 124.25 250.789062 99.472656 C 246.605469 81.628906 238.667969 68.164062 221.753906 68.164062 L 203.238281 68.164062 L 203.238281 95.558594 C 203.238281 116.8125 186.355469 138.085938 167 138.085938 L 108.941406 138.085938 C 93.058594 138.085938 76.550781 149.167969 76.550781 166.085938 L 76.550781 217.039062 C 76.550781 233.785156 90.253906 243.605469 105.585938 248.40625 C 123.960938 254.121094 141.640625 255.15625 163.648438 248.40625 C 178.277344 243.898438 192.683594 234.820312 192.683594 217.039062 L 190.582031 191.421875 L 132.5625 191.421875 Z M 217.613281 187.691406 " fill-opacity="1" fill-rule="nonzero"/><path fill="#ffffff" d="M 152.015625 206.042969 C 158.042969 206.042969 162.9375 211.304688 162.9375 217.773438 C 162.9375 224.308594 158.042969 229.558594 152.015625 229.558594 C 146.03125 229.558594 141.09375 224.242188 141.09375 217.773438 C 141.136719 211.238281 146.03125 206.042969 152.015625 206.042969 Z M 152.015625 206.042969 " fill-opacity="1" fill-rule="nonzero"/><path fill="#ffffff" d="M 111.582031 33.53125 C 117.609375 33.53125 122.503906 38.792969 122.503906 45.261719 C 122.503906 51.796875 117.609375 57.046875 111.582031 57.046875 C 105.597656 57.046875 100.660156 51.730469 100.660156 45.261719 C 100.703125 38.730469 105.597656 33.53125 111.582031 33.53125 Z M 111.582031 33.53125 " fill-opacity="1" fill-rule="nonzero"/><path fill="#000000" d="M 76.550781 198.925781 C 72.089844 198.925781 68.464844 195.304688 68.464844 190.839844 L 68.464844 163.238281 C 68.789062 145.027344 80.316406 134.234375 99.289062 134.234375 L 158.484375 134.234375 C 183.121094 134.234375 197.828125 120.371094 197.828125 97.144531 L 197.828125 69.542969 C 197.828125 65.078125 201.449219 61.457031 205.914062 61.457031 C 210.378906 61.457031 214 65.078125 214 69.542969 L 214 96.5 C 214 129.5 192.210938 150.40625 158.484375 150.40625 L 99.289062 150.40625 C 86.578125 150.40625 84.746094 156.964844 84.636719 163.390625 L 84.636719 190.839844 C 84.636719 195.304688 81.015625 198.925781 76.550781 198.925781 Z M 76.550781 198.925781 " fill-opacity="1" fill-rule="nonzero"/><path fill="#000000" d="M 132.285156 260.921875 C 121.867188 260.921875 111.238281 260.101562 101.113281 258.453125 C 81.261719 255.089844 68.464844 239.855469 68.464844 219.628906 L 68.464844 163.238281 C 68.464844 158.773438 72.089844 155.152344 76.550781 155.152344 C 81.015625 155.152344 84.636719 158.773438 84.636719 163.238281 L 84.636719 219.617188 C 84.636719 231.917969 91.785156 240.457031 103.765625 242.484375 C 122.492188 245.527344 143.066406 245.503906 160.144531 242.378906 C 170.246094 240.652344 176.574219 238.097656 179.574219 234.550781 C 182.011719 231.671875 183.042969 227.207031 183.042969 219.605469 L 183.042969 193.515625 L 138.527344 193.515625 C 134.0625 193.515625 130.441406 189.890625 130.441406 185.425781 C 130.441406 180.964844 134.0625 177.339844 138.527344 177.339844 L 191.132812 177.339844 C 195.59375 177.339844 199.21875 180.964844 199.21875 185.425781 L 199.21875 219.605469 C 199.21875 227.421875 198.386719 237.351562 191.90625 244.996094 C 186.28125 251.640625 177.082031 255.875 162.957031 258.292969 C 153.46875 260.050781 142.988281 260.921875 132.285156 260.921875 Z M 132.285156 260.921875 " fill-opacity="1" fill-rule="nonzero"/><path fill="#000000" d="M 213.351562 193.535156 L 191.140625 193.535156 C 186.679688 193.535156 183.054688 189.914062 183.054688 185.449219 C 183.054688 180.984375 186.679688 177.363281 191.140625 177.363281 L 213.351562 177.363281 C 228.945312 177.363281 236.351562 171.84375 239.78125 157.675781 C 244.988281 135.90625 244.988281 123.257812 239.769531 101.273438 C 235.046875 81.652344 227.984375 77.628906 218.851562 77.628906 L 214 77.628906 L 214 96.5 C 214 100.960938 210.378906 104.90625 205.914062 104.90625 C 201.449219 104.90625 197.828125 101.597656 197.828125 97.132812 L 197.828125 69.542969 C 197.828125 65.078125 201.449219 61.457031 205.914062 61.457031 L 218.851562 61.457031 C 243.917969 61.457031 251.769531 82.027344 255.5 97.511719 C 261.269531 121.835938 261.269531 137.363281 255.5 161.460938 C 250.355469 182.742188 236.179688 193.535156 213.351562 193.535156 Z M 213.351562 193.535156 " fill-opacity="1" fill-rule="nonzero"/><path fill="#000000" d="M 152.015625 236.664062 C 141.609375 236.664062 133.144531 228.1875 133.144531 217.773438 C 133.144531 207.378906 141.609375 198.925781 152.015625 198.925781 C 162.417969 198.925781 170.882812 207.378906 170.882812 217.773438 C 170.773438 228.230469 162.3125 236.664062 152.015625 236.664062 Z M 152.015625 215.097656 C 150.527344 215.097656 149.320312 216.296875 149.320312 217.773438 C 149.320312 220.707031 154.675781 220.75 154.710938 217.699219 C 154.710938 216.296875 153.492188 215.097656 152.015625 215.097656 Z M 152.015625 215.097656 " fill-opacity="1" fill-rule="nonzero"/><path fill="#000000" d="M 55.007812 201.621094 C 50.546875 201.621094 46.921875 198 46.921875 193.535156 L 46.921875 166.582031 C 46.921875 133.578125 68.714844 112.671875 102.4375 112.671875 L 161.632812 112.671875 C 174.34375 112.671875 176.175781 106.117188 176.285156 99.699219 L 176.285156 72.238281 C 176.285156 67.773438 179.90625 64.152344 184.371094 64.152344 C 188.835938 64.152344 192.457031 67.773438 192.457031 72.238281 L 192.457031 99.851562 C 192.132812 118.0625 180.609375 128.84375 161.632812 128.84375 L 102.4375 128.84375 C 77.800781 128.84375 63.097656 142.710938 63.097656 165.933594 L 63.097656 193.535156 C 63.097656 198 59.472656 201.621094 55.007812 201.621094 Z M 55.007812 201.621094 " fill-opacity="1" fill-rule="nonzero"/><path fill="#000000" d="M 184.371094 107.9375 C 179.90625 107.9375 176.285156 104.316406 176.285156 99.851562 L 176.285156 43.453125 C 176.285156 31.148438 169.136719 22.609375 157.15625 20.582031 C 138.429688 17.542969 117.855469 17.5625 100.777344 20.691406 C 90.675781 22.414062 84.347656 24.972656 81.339844 28.507812 C 78.902344 31.386719 77.867188 35.851562 77.867188 43.453125 L 77.867188 69.542969 L 122.386719 69.542969 C 126.847656 69.542969 130.472656 73.167969 130.472656 77.628906 C 130.472656 82.09375 126.847656 85.714844 122.386719 85.714844 L 69.78125 85.714844 C 65.316406 85.714844 61.695312 82.09375 61.695312 77.628906 L 61.695312 43.453125 C 61.695312 35.632812 62.523438 25.703125 69.003906 18.058594 C 74.632812 11.417969 83.828125 7.179688 97.953125 4.765625 C 116.714844 1.359375 139.28125 1.292969 159.808594 4.636719 C 179.671875 8 192.46875 23.234375 192.46875 43.460938 L 192.46875 99.851562 C 192.457031 104.316406 188.84375 107.9375 184.371094 107.9375 Z M 184.371094 107.9375 " fill-opacity="1" fill-rule="nonzero"/><path fill="#000000" d="M 55.007812 201.621094 L 42.070312 201.621094 C 17.003906 201.621094 9.152344 181.050781 5.421875 165.566406 C -0.34375 141.242188 -0.34375 125.71875 5.421875 101.621094 C 10.566406 80.335938 24.746094 69.542969 47.570312 69.542969 L 69.78125 69.542969 C 74.246094 69.542969 77.867188 73.167969 77.867188 77.628906 C 77.867188 82.09375 74.246094 85.714844 69.78125 85.714844 L 47.570312 85.714844 C 31.980469 85.714844 24.570312 91.238281 21.144531 105.402344 C 15.9375 127.171875 15.9375 139.820312 21.152344 161.804688 C 25.875 181.425781 32.9375 185.449219 42.070312 185.449219 L 46.921875 185.449219 L 46.921875 166.582031 C 46.921875 162.117188 50.546875 158.171875 55.007812 158.171875 C 59.472656 158.171875 63.097656 161.480469 63.097656 165.945312 L 63.097656 193.546875 C 63.097656 198 59.472656 201.621094 55.007812 201.621094 Z M 55.007812 201.621094 " fill-opacity="1" fill-rule="nonzero"/><path fill="#000000" d="M 108.910156 64.152344 C 98.503906 64.152344 90.039062 55.699219 90.039062 45.304688 C 90.136719 34.847656 98.601562 26.414062 108.910156 26.414062 C 119.3125 26.414062 127.777344 34.890625 127.777344 45.304688 C 127.777344 55.699219 119.3125 64.152344 108.910156 64.152344 Z M 108.910156 42.589844 C 107.410156 42.589844 106.222656 43.816406 106.210938 45.382812 C 106.210938 48.183594 111.605469 48.261719 111.605469 45.304688 C 111.605469 43.859375 110.351562 42.589844 108.910156 42.589844 Z M 108.910156 42.589844 " fill-opacity="1" fill-rule="nonzero"/></svg>